<?xml version="1.0" encoding="UTF-8"?>
<svg id="Capa_2" data-name="Capa 2" xmlns="http://www.w3.org/2000/svg" viewBox="0 0 109.65 109.65">
  <defs>
    <style>
      .cls-1, .cls-2 {
        fill: #fff;
      }

      .cls-3 {
        fill: #636364;
      }

      .cls-4 {
        fill: #dadada;
        opacity: .75;
      }

      .cls-2 {
        stroke: #ededed;
        stroke-miterlimit: 10;
        stroke-width: .75px;
      }
    </style>
  </defs>
  <g id="Capa_1-2" data-name="Capa 1">
    <g>
      <circle class="cls-2" cx="54.82" cy="54.82" r="54.45"/>
      <g>
        <ellipse class="cls-4" cx="55.21" cy="84.34" rx="23.37" ry="2.66"/>
        <g>
          <path class="cls-1" d="M74.34,31.8c-3.2-4.9-9.14-5.95-16-6.73-6.89-.79-12.93-1.11-17.13,2.95-3.75,3.64-5.9,10.56-7.43,23.9-3.04,26.51,3.1,30.03,17.84,31.72,14.47,1.66,21.62-.45,24.65-26.84,1.53-13.32.97-20.56-1.93-24.99Z"/>
          <path class="cls-3" d="M51.56,51.12c-.7-.08-1.21-.72-1.13-1.42l.11-.95c.03-.29-.18-.55-.47-.59l-.94-.11c-.29-.03-.55.18-.59.47l-.11.95c-.08.7-.72,1.21-1.42,1.13s-1.21-.72-1.13-1.42l.11-.95c.19-1.69,1.73-2.91,3.42-2.72l.94.11c1.69.19,2.91,1.73,2.72,3.42l-.11.95c-.08.7-.72,1.21-1.42,1.13Z"/>
          <path class="cls-3" d="M63.65,52.5c-.7-.08-1.21-.72-1.13-1.42l.11-.95c.03-.29-.18-.55-.47-.59l-.94-.11c-.29-.03-.55.18-.59.47l-.11.95c-.08.7-.72,1.21-1.42,1.13s-1.21-.72-1.13-1.42l.11-.95c.19-1.69,1.73-2.91,3.42-2.72l.94.11c1.69.19,2.91,1.73,2.72,3.42l-.11.95c-.08.7-.72,1.21-1.42,1.13Z"/>
          <path class="cls-3" d="M54.09,62.46c-4.15-.48-7.83-2.95-9.83-6.62-.34-.62-.11-1.4.51-1.74.62-.34,1.4-.11,1.74.51,1.61,2.94,4.55,4.92,7.88,5.3s6.66-.89,8.9-3.41c.47-.53,1.28-.58,1.81-.11.53.47.58,1.28.11,1.81-2.79,3.14-6.94,4.73-11.1,4.25Z"/>
          <path class="cls-3" d="M74.52,31.6c-3.23-4.94-9.22-6-16.14-6.79-6.95-.8-13.05-1.12-17.28,2.98-3.78,3.67-5.96,10.65-7.5,24.11-3.07,26.75,3.13,30.29,18,32,14.6,1.68,21.82-.45,24.87-27.08,1.54-13.44.98-20.75-1.95-25.22ZM53.34,27.8c1.28.04,2.7.16,4.33.34,1.72.2,3.2.42,4.52.69.28.06.46.33.4.6-.05.26-.3.44-.56.41-.01,0-.03,0-.04,0-1.29-.26-2.73-.48-4.43-.68-1.6-.18-2.99-.29-4.24-.34-.29,0-.5-.25-.49-.53,0-.28.25-.5.53-.49ZM43.16,79.37c-.44-.05-.75-.45-.7-.88.05-.44.45-.75.88-.7.44.05.75.45.7.88-.05.44-.45.75-.88.7ZM57.79,81.92c-1.79.04-3.75-.07-5.99-.33-2.38-.27-4.41-.64-6.22-1.12-.55-.15-.87-.71-.73-1.25.15-.55.71-.87,1.25-.73,1.71.46,3.65.8,5.93,1.07,2.15.25,4.02.35,5.72.32.56-.01,1.03.44,1.05,1,.01.57-.44,1.03-1,1.05ZM60.38,81.35c-.44-.05-.75-.45-.7-.88.05-.44.45-.75.88-.7s.75.45.7.88c-.05.44-.45.75-.88.7ZM72.9,56.41c-1.33,11.61-3.26,17.91-6.2,21.17-2.41-.03-6.74-.29-14.46-1.17-7.32-.84-11.54-1.53-13.96-2.04-2.08-3.83-2.46-10.4-1.12-22.06,1.43-12.48,3.38-18.83,6.42-21.89,1.86-.07,5.75.04,13.84.97,9,1.03,12.71,1.86,14.22,2.34,2.36,3.72,2.69,10.34,1.27,22.69Z"/>
        </g>
      </g>
    </g>
  </g>
</svg>