<?xml version="1.0" encoding="UTF-8"?>
<svg id="Capa_1" data-name="Capa 1" xmlns="http://www.w3.org/2000/svg" viewBox="0 0 600 600">
  <defs>
    <style>
      .cls-1 {
        fill: #636263;
      }

      .cls-2, .cls-3 {
        fill: #fff;
      }

      .cls-3 {
        stroke: #ebebeb;
        stroke-miterlimit: 10;
        stroke-width: 5.18px;
      }

      .cls-4 {
        fill: #d8d8d8;
        opacity: .75;
      }
    </style>
  </defs>
  <circle class="cls-3" cx="300" cy="300" r="293.09"/>
  <g>
    <ellipse class="cls-4" cx="302.07" cy="458.87" rx="125.77" ry="14.29"/>
    <g>
      <path class="cls-2" d="M405.08,176.07c-17.25-26.36-49.21-32.01-86.12-36.24-37.08-4.25-69.61-5.99-92.2,15.9-20.18,19.57-31.77,56.84-40.01,128.65-16.37,142.73,16.69,161.63,96.04,170.73,77.9,8.94,116.39-2.4,132.69-144.49,8.23-71.71,5.21-110.69-10.4-134.55Z"/>
      <path class="cls-1" d="M282.45,280.04c-3.78-.43-6.5-3.85-6.07-7.64l.58-5.1c.18-1.56-.95-2.98-2.51-3.16l-5.06-.58c-1.56-.18-2.98.95-3.16,2.51l-.58,5.1c-.43,3.78-3.85,6.5-7.64,6.07-3.78-.43-6.5-3.85-6.07-7.64l.58-5.1c1.05-9.12,9.32-15.69,18.44-14.64l5.06.58c9.12,1.05,15.69,9.32,14.64,18.44l-.58,5.1c-.43,3.78-3.85,6.5-7.64,6.07Z"/>
      <path class="cls-1" d="M347.5,287.5c-3.78-.43-6.5-3.85-6.07-7.64l.58-5.1c.18-1.56-.95-2.98-2.51-3.16l-5.06-.58c-1.56-.18-2.98.95-3.16,2.51l-.58,5.1c-.43,3.78-3.85,6.5-7.64,6.07-3.78-.43-6.5-3.85-6.07-7.64l.58-5.1c1.05-9.12,9.32-15.69,18.44-14.64l5.06.58c9.12,1.05,15.69,9.32,14.64,18.44l-.58,5.1c-.43,3.78-3.85,6.5-7.64,6.07Z"/>
      <path class="cls-1" d="M296.04,341.09c-22.34-2.56-42.12-15.88-52.93-35.62-1.83-3.34-.6-7.53,2.74-9.36,3.34-1.83,7.53-.6,9.36,2.74,8.66,15.82,24.51,26.49,42.4,28.54,17.97,2.06,35.87-4.8,47.89-18.34,2.53-2.85,6.89-3.11,9.74-.58,2.85,2.53,3.11,6.89.58,9.74-15,16.91-37.35,25.46-59.78,22.89Z"/>
      <path class="cls-1" d="M406.01,174.98c-17.4-26.59-49.65-32.3-86.9-36.57-37.41-4.29-70.24-6.05-93.02,16.05-20.36,19.74-32.06,57.35-40.37,129.8-16.52,144.01,16.84,163.08,96.9,172.26,78.6,9.02,117.43-2.42,133.88-145.79,8.3-72.35,5.26-111.68-10.49-135.75ZM292.02,154.55c6.9.23,14.52.84,23.29,1.84,9.27,1.06,17.22,2.28,24.31,3.73,1.49.3,2.46,1.76,2.15,3.25-.29,1.41-1.61,2.35-3.01,2.19-.08,0-.16-.02-.24-.04-6.92-1.41-14.72-2.61-23.83-3.65-8.62-.99-16.09-1.58-22.85-1.81-1.55-.02-2.72-1.33-2.66-2.85.05-1.52,1.33-2.72,2.85-2.66ZM237.24,432.15c-2.35-.27-4.04-2.4-3.77-4.75.27-2.35,2.4-4.04,4.75-3.77,2.35.27,4.04,2.4,3.77,4.75-.27,2.35-2.4,4.04-4.75,3.77ZM316,445.88c-9.62.19-20.17-.39-32.26-1.77-12.79-1.47-23.75-3.44-33.49-6.04-2.95-.78-4.7-3.8-3.91-6.75.78-2.95,3.83-4.69,6.75-3.91,9.22,2.45,19.66,4.33,31.91,5.74,11.59,1.33,21.66,1.89,30.78,1.7,3.03-.05,5.57,2.36,5.63,5.4.06,3.05-2.36,5.57-5.41,5.63ZM329.91,442.79c-2.35-.27-4.04-2.4-3.77-4.75.27-2.35,2.4-4.04,4.75-3.77s4.04,2.4,3.77,4.75c-.27,2.35-2.4,4.04-4.75,3.77ZM397.31,308.53c-7.17,62.51-17.56,96.39-33.37,113.98-13-.16-36.28-1.54-77.83-6.31-39.43-4.52-62.1-8.26-75.16-11-11.19-20.63-13.25-55.96-6.05-118.75,7.71-67.19,18.2-101.35,34.54-117.85,9.99-.4,30.94.2,74.47,5.2,48.46,5.56,68.41,10.02,76.55,12.58,12.72,20.04,14.47,55.65,6.84,122.15Z"/>
    </g>
  </g>
</svg>